<svg width="1273" height="1314" viewBox="0 0 1273 1314" fill="none" xmlns="http://www.w3.org/2000/svg">
<g clip-path="url(#clip0_203_434)">
<path d="M296 934.48L232.67 866L222 900.24V985.33L232.67 909L244.67 903L249.67 913L255.67 907L263.67 919L267.67 913L273.33 923.5L296 934.48Z" fill="black"/>
<path d="M148 934.48L211.33 866L222 900.24V985.33L211.33 909L199.33 903L194.33 913L188.33 907L180.33 919L176.33 913L170.67 923.5L148 934.48Z" fill="black"/>
</g>
<g clip-path="url(#clip1_203_434)">
<path d="M296 277.48L232.67 209L222 243.24V328.33L232.67 252L244.67 246L249.67 256L255.67 250L263.67 262L267.67 256L273.33 266.5L296 277.48Z" fill="black"/>
<path d="M148 277.48L211.33 209L222 243.24V328.33L211.33 252L199.33 246L194.33 256L188.33 250L180.33 262L176.33 256L170.67 266.5L148 277.48Z" fill="black"/>
</g>
<g clip-path="url(#clip2_203_434)">
<path d="M296 1262.48L232.67 1194L222 1228.24V1313.33L232.67 1237L244.67 1231L249.67 1241L255.67 1235L263.67 1247L267.67 1241L273.33 1251.5L296 1262.48Z" fill="black"/>
<path d="M148 1262.48L211.33 1194L222 1228.24V1313.33L211.33 1237L199.33 1231L194.33 1241L188.33 1235L180.33 1247L176.33 1241L170.67 1251.5L148 1262.48Z" fill="black"/>
</g>
<g clip-path="url(#clip3_203_434)">
<path d="M296 605.48L232.67 537L222 571.24V656.33L232.67 580L244.67 574L249.67 584L255.67 578L263.67 590L267.67 584L273.33 594.5L296 605.48Z" fill="black"/>
<path d="M148 605.48L211.33 537L222 571.24V656.33L211.33 580L199.33 574L194.33 584L188.33 578L180.33 590L176.33 584L170.67 594.5L148 605.48Z" fill="black"/>
</g>
<g clip-path="url(#clip4_203_434)">
<path d="M888 934.48L824.67 866L814 900.24V985.33L824.67 909L836.67 903L841.67 913L847.67 907L855.67 919L859.67 913L865.33 923.5L888 934.48Z" fill="black"/>
<path d="M740 934.48L803.33 866L814 900.24V985.33L803.33 909L791.33 903L786.33 913L780.33 907L772.33 919L768.33 913L762.67 923.5L740 934.48Z" fill="black"/>
</g>
<g clip-path="url(#clip5_203_434)">
<path d="M888 277.48L824.67 209L814 243.24V328.33L824.67 252L836.67 246L841.67 256L847.67 250L855.67 262L859.67 256L865.33 266.5L888 277.48Z" fill="black"/>
<path d="M740 277.48L803.33 209L814 243.24V328.33L803.33 252L791.33 246L786.33 256L780.33 250L772.33 262L768.33 256L762.67 266.5L740 277.48Z" fill="black"/>
</g>
<g clip-path="url(#clip6_203_434)">
<path d="M888 1262.48L824.67 1194L814 1228.24V1313.33L824.67 1237L836.67 1231L841.67 1241L847.67 1235L855.67 1247L859.67 1241L865.33 1251.5L888 1262.48Z" fill="black"/>
<path d="M740 1262.48L803.33 1194L814 1228.24V1313.33L803.33 1237L791.33 1231L786.33 1241L780.33 1235L772.33 1247L768.33 1241L762.67 1251.5L740 1262.48Z" fill="black"/>
</g>
<g clip-path="url(#clip7_203_434)">
<path d="M888 605.48L824.67 537L814 571.24V656.33L824.67 580L836.67 574L841.67 584L847.67 578L855.67 590L859.67 584L865.33 594.5L888 605.48Z" fill="black"/>
<path d="M740 605.48L803.33 537L814 571.24V656.33L803.33 580L791.33 574L786.33 584L780.33 578L772.33 590L768.33 584L762.67 594.5L740 605.48Z" fill="black"/>
</g>
<g clip-path="url(#clip8_203_434)">
<path d="M592 934.48L528.67 866L518 900.24V985.33L528.67 909L540.67 903L545.67 913L551.67 907L559.67 919L563.67 913L569.33 923.5L592 934.48Z" fill="black"/>
<path d="M444 934.48L507.33 866L518 900.24V985.33L507.33 909L495.33 903L490.33 913L484.33 907L476.33 919L472.33 913L466.67 923.5L444 934.48Z" fill="black"/>
</g>
<g clip-path="url(#clip9_203_434)">
<path d="M592 277.48L528.67 209L518 243.24V328.33L528.67 252L540.67 246L545.67 256L551.67 250L559.67 262L563.67 256L569.33 266.5L592 277.48Z" fill="black"/>
<path d="M444 277.48L507.33 209L518 243.24V328.33L507.33 252L495.33 246L490.33 256L484.33 250L476.33 262L472.33 256L466.67 266.5L444 277.48Z" fill="black"/>
</g>
<g clip-path="url(#clip10_203_434)">
<path d="M592 1262.48L528.67 1194L518 1228.24V1313.33L528.67 1237L540.67 1231L545.67 1241L551.67 1235L559.67 1247L563.67 1241L569.33 1251.5L592 1262.48Z" fill="black"/>
<path d="M444 1262.48L507.33 1194L518 1228.24V1313.33L507.33 1237L495.33 1231L490.33 1241L484.33 1235L476.33 1247L472.33 1241L466.67 1251.5L444 1262.48Z" fill="black"/>
</g>
<g clip-path="url(#clip11_203_434)">
<path d="M592 605.48L528.67 537L518 571.24V656.33L528.67 580L540.67 574L545.67 584L551.67 578L559.67 590L563.67 584L569.33 594.5L592 605.48Z" fill="black"/>
<path d="M444 605.48L507.33 537L518 571.24V656.33L507.33 580L495.33 574L490.33 584L484.33 578L476.33 590L472.33 584L466.67 594.5L444 605.48Z" fill="black"/>
</g>
<g clip-path="url(#clip12_203_434)">
<path d="M1184 934.48L1120.67 866L1110 900.24V985.33L1120.67 909L1132.67 903L1137.67 913L1143.67 907L1151.67 919L1155.67 913L1161.33 923.5L1184 934.48Z" fill="black"/>
<path d="M1036 934.48L1099.33 866L1110 900.24V985.33L1099.33 909L1087.33 903L1082.33 913L1076.33 907L1068.33 919L1064.33 913L1058.67 923.5L1036 934.48Z" fill="black"/>
</g>
<g clip-path="url(#clip13_203_434)">
<path d="M1184 277.48L1120.67 209L1110 243.24V328.33L1120.67 252L1132.67 246L1137.67 256L1143.67 250L1151.67 262L1155.67 256L1161.33 266.5L1184 277.48Z" fill="black"/>
<path d="M1036 277.48L1099.33 209L1110 243.24V328.33L1099.33 252L1087.33 246L1082.33 256L1076.33 250L1068.33 262L1064.33 256L1058.67 266.5L1036 277.48Z" fill="black"/>
</g>
<g clip-path="url(#clip14_203_434)">
<path d="M1184 1262.48L1120.67 1194L1110 1228.24V1313.33L1120.67 1237L1132.67 1231L1137.67 1241L1143.67 1235L1151.67 1247L1155.67 1241L1161.33 1251.5L1184 1262.48Z" fill="black"/>
<path d="M1036 1262.48L1099.33 1194L1110 1228.24V1313.33L1099.33 1237L1087.33 1231L1082.33 1241L1076.33 1235L1068.33 1247L1064.33 1241L1058.67 1251.5L1036 1262.48Z" fill="black"/>
</g>
<g clip-path="url(#clip15_203_434)">
<path d="M1184 605.48L1120.67 537L1110 571.24V656.33L1120.67 580L1132.67 574L1137.67 584L1143.67 578L1151.67 590L1155.67 584L1161.33 594.5L1184 605.48Z" fill="black"/>
<path d="M1036 605.48L1099.33 537L1110 571.24V656.33L1099.33 580L1087.33 574L1082.33 584L1076.33 578L1068.33 590L1064.33 584L1058.67 594.5L1036 605.48Z" fill="black"/>
</g>
<g clip-path="url(#clip16_203_434)">
<path d="M216 828.075L168.502 777L160.5 802.537V866L168.502 809.071L177.502 804.596L181.252 812.054L185.752 807.579L191.752 816.529L194.752 812.054L198.998 819.885L216 828.075Z" fill="black"/>
<path d="M105 828.075L152.498 777L160.5 802.537V866L152.498 809.071L143.498 804.596L139.748 812.054L135.248 807.579L129.248 816.529L126.247 812.054L122.003 819.885L105 828.075Z" fill="black"/>
</g>
<g clip-path="url(#clip17_203_434)">
<path d="M216 171.075L168.502 120L160.5 145.537V209L168.502 152.071L177.502 147.596L181.252 155.054L185.752 150.579L191.752 159.529L194.752 155.054L198.998 162.885L216 171.075Z" fill="black"/>
<path d="M105 171.075L152.498 120L160.5 145.537V209L152.498 152.071L143.498 147.596L139.748 155.054L135.248 150.579L129.248 159.529L126.247 155.054L122.003 162.885L105 171.075Z" fill="black"/>
</g>
<g clip-path="url(#clip18_203_434)">
<path d="M216 1156.07L168.502 1105L160.5 1130.54V1194L168.502 1137.07L177.502 1132.6L181.252 1140.05L185.752 1135.58L191.752 1144.53L194.752 1140.05L198.998 1147.89L216 1156.07Z" fill="black"/>
<path d="M105 1156.07L152.498 1105L160.5 1130.54V1194L152.498 1137.07L143.498 1132.6L139.748 1140.05L135.248 1135.58L129.248 1144.53L126.247 1140.05L122.003 1147.89L105 1156.07Z" fill="black"/>
</g>
<g clip-path="url(#clip19_203_434)">
<path d="M216 499.075L168.502 448L160.5 473.537V537L168.502 480.071L177.502 475.596L181.252 483.054L185.752 478.579L191.752 487.529L194.752 483.054L198.998 490.885L216 499.075Z" fill="black"/>
<path d="M105 499.075L152.498 448L160.5 473.537V537L152.498 480.071L143.498 475.596L139.748 483.054L135.248 478.579L129.248 487.529L126.247 483.054L122.003 490.885L105 499.075Z" fill="black"/>
</g>
<g clip-path="url(#clip20_203_434)">
<path d="M820 828.075L772.502 777L764.5 802.537V866L772.502 809.071L781.502 804.596L785.252 812.054L789.752 807.579L795.752 816.529L798.752 812.054L802.998 819.885L820 828.075Z" fill="black"/>
<path d="M709 828.075L756.498 777L764.5 802.537V866L756.498 809.071L747.498 804.596L743.748 812.054L739.248 807.579L733.248 816.529L730.247 812.054L726.003 819.885L709 828.075Z" fill="black"/>
</g>
<g clip-path="url(#clip21_203_434)">
<path d="M820 171.075L772.502 120L764.5 145.537V209L772.502 152.071L781.502 147.596L785.252 155.054L789.752 150.579L795.752 159.529L798.752 155.054L802.998 162.885L820 171.075Z" fill="black"/>
<path d="M709 171.075L756.498 120L764.5 145.537V209L756.498 152.071L747.498 147.596L743.748 155.054L739.248 150.579L733.248 159.529L730.247 155.054L726.003 162.885L709 171.075Z" fill="black"/>
</g>
<g clip-path="url(#clip22_203_434)">
<path d="M820 1156.07L772.502 1105L764.5 1130.54V1194L772.502 1137.07L781.502 1132.6L785.252 1140.05L789.752 1135.58L795.752 1144.53L798.752 1140.05L802.998 1147.89L820 1156.07Z" fill="black"/>
<path d="M709 1156.07L756.498 1105L764.5 1130.54V1194L756.498 1137.07L747.498 1132.6L743.748 1140.05L739.248 1135.58L733.248 1144.53L730.247 1140.05L726.003 1147.89L709 1156.07Z" fill="black"/>
</g>
<g clip-path="url(#clip23_203_434)">
<path d="M820 499.075L772.502 448L764.5 473.537V537L772.502 480.071L781.502 475.596L785.252 483.054L789.752 478.579L795.752 487.529L798.752 483.054L802.998 490.885L820 499.075Z" fill="black"/>
<path d="M709 499.075L756.498 448L764.5 473.537V537L756.498 480.071L747.498 475.596L743.748 483.054L739.248 478.579L733.248 487.529L730.247 483.054L726.003 490.885L709 499.075Z" fill="black"/>
</g>
<g clip-path="url(#clip24_203_434)">
<path d="M518 828.075L470.502 777L462.5 802.537V866L470.502 809.071L479.502 804.596L483.252 812.054L487.752 807.579L493.752 816.529L496.752 812.054L500.998 819.885L518 828.075Z" fill="black"/>
<path d="M407 828.075L454.498 777L462.5 802.537V866L454.498 809.071L445.498 804.596L441.748 812.054L437.248 807.579L431.248 816.529L428.247 812.054L424.003 819.885L407 828.075Z" fill="black"/>
</g>
<g clip-path="url(#clip25_203_434)">
<path d="M518 171.075L470.502 120L462.5 145.537V209L470.502 152.071L479.502 147.596L483.252 155.054L487.752 150.579L493.752 159.529L496.752 155.054L500.998 162.885L518 171.075Z" fill="black"/>
<path d="M407 171.075L454.498 120L462.5 145.537V209L454.498 152.071L445.498 147.596L441.748 155.054L437.248 150.579L431.248 159.529L428.247 155.054L424.003 162.885L407 171.075Z" fill="black"/>
</g>
<g clip-path="url(#clip26_203_434)">
<path d="M518 1156.07L470.502 1105L462.5 1130.54V1194L470.502 1137.07L479.502 1132.6L483.252 1140.05L487.752 1135.58L493.752 1144.53L496.752 1140.05L500.998 1147.89L518 1156.07Z" fill="black"/>
<path d="M407 1156.07L454.498 1105L462.5 1130.54V1194L454.498 1137.07L445.498 1132.6L441.748 1140.05L437.248 1135.58L431.248 1144.53L428.247 1140.05L424.003 1147.89L407 1156.07Z" fill="black"/>
</g>
<g clip-path="url(#clip27_203_434)">
<path d="M518 499.075L470.502 448L462.5 473.537V537L470.502 480.071L479.502 475.596L483.252 483.054L487.752 478.579L493.752 487.529L496.752 483.054L500.998 490.885L518 499.075Z" fill="black"/>
<path d="M407 499.075L454.498 448L462.5 473.537V537L454.498 480.071L445.498 475.596L441.748 483.054L437.248 478.579L431.248 487.529L428.247 483.054L424.003 490.885L407 499.075Z" fill="black"/>
</g>
<g clip-path="url(#clip28_203_434)">
<path d="M1122 828.075L1074.5 777L1066.5 802.537V866L1074.5 809.071L1083.5 804.596L1087.25 812.054L1091.75 807.579L1097.75 816.529L1100.75 812.054L1105 819.885L1122 828.075Z" fill="black"/>
<path d="M1011 828.075L1058.5 777L1066.5 802.537V866L1058.5 809.071L1049.5 804.596L1045.75 812.054L1041.25 807.579L1035.25 816.529L1032.25 812.054L1028 819.885L1011 828.075Z" fill="black"/>
</g>
<g clip-path="url(#clip29_203_434)">
<path d="M1122 171.075L1074.5 120L1066.5 145.537V209L1074.5 152.071L1083.5 147.596L1087.25 155.054L1091.75 150.579L1097.75 159.529L1100.75 155.054L1105 162.885L1122 171.075Z" fill="black"/>
<path d="M1011 171.075L1058.5 120L1066.5 145.537V209L1058.5 152.071L1049.5 147.596L1045.75 155.054L1041.25 150.579L1035.25 159.529L1032.25 155.054L1028 162.885L1011 171.075Z" fill="black"/>
</g>
<g clip-path="url(#clip30_203_434)">
<path d="M1122 1156.07L1074.5 1105L1066.5 1130.54V1194L1074.5 1137.07L1083.5 1132.6L1087.25 1140.05L1091.75 1135.58L1097.75 1144.53L1100.75 1140.05L1105 1147.89L1122 1156.07Z" fill="black"/>
<path d="M1011 1156.07L1058.5 1105L1066.5 1130.54V1194L1058.5 1137.07L1049.5 1132.6L1045.75 1140.05L1041.25 1135.58L1035.25 1144.53L1032.25 1140.05L1028 1147.89L1011 1156.07Z" fill="black"/>
</g>
<g clip-path="url(#clip31_203_434)">
<path d="M1122 499.075L1074.5 448L1066.5 473.537V537L1074.5 480.071L1083.5 475.596L1087.25 483.054L1091.75 478.579L1097.75 487.529L1100.75 483.054L1105 490.885L1122 499.075Z" fill="black"/>
<path d="M1011 499.075L1058.5 448L1066.5 473.537V537L1058.5 480.071L1049.5 475.596L1045.75 483.054L1041.25 478.579L1035.25 487.529L1032.25 483.054L1028 490.885L1011 499.075Z" fill="black"/>
</g>
<g clip-path="url(#clip32_203_434)">
<path d="M367 828.075L319.502 777L311.5 802.537V866L319.502 809.071L328.502 804.596L332.252 812.054L336.752 807.579L342.752 816.529L345.752 812.054L349.998 819.885L367 828.075Z" fill="black"/>
<path d="M256 828.075L303.498 777L311.5 802.537V866L303.498 809.071L294.498 804.596L290.748 812.054L286.248 807.579L280.248 816.529L277.247 812.054L273.003 819.885L256 828.075Z" fill="black"/>
</g>
<g clip-path="url(#clip33_203_434)">
<path d="M367 171.075L319.502 120L311.5 145.537V209L319.502 152.071L328.502 147.596L332.252 155.054L336.752 150.579L342.752 159.529L345.752 155.054L349.998 162.885L367 171.075Z" fill="black"/>
<path d="M256 171.075L303.498 120L311.5 145.537V209L303.498 152.071L294.498 147.596L290.748 155.054L286.248 150.579L280.248 159.529L277.247 155.054L273.003 162.885L256 171.075Z" fill="black"/>
</g>
<g clip-path="url(#clip34_203_434)">
<path d="M367 1156.07L319.502 1105L311.5 1130.54V1194L319.502 1137.07L328.502 1132.6L332.252 1140.05L336.752 1135.58L342.752 1144.53L345.752 1140.05L349.998 1147.89L367 1156.07Z" fill="black"/>
<path d="M256 1156.07L303.498 1105L311.5 1130.54V1194L303.498 1137.07L294.498 1132.6L290.748 1140.05L286.248 1135.58L280.248 1144.53L277.247 1140.05L273.003 1147.89L256 1156.07Z" fill="black"/>
</g>
<g clip-path="url(#clip35_203_434)">
<path d="M367 499.075L319.502 448L311.5 473.537V537L319.502 480.071L328.502 475.596L332.252 483.054L336.752 478.579L342.752 487.529L345.752 483.054L349.998 490.885L367 499.075Z" fill="black"/>
<path d="M256 499.075L303.498 448L311.5 473.537V537L303.498 480.071L294.498 475.596L290.748 483.054L286.248 478.579L280.248 487.529L277.247 483.054L273.003 490.885L256 499.075Z" fill="black"/>
</g>
<g clip-path="url(#clip36_203_434)">
<path d="M971 828.075L923.502 777L915.5 802.537V866L923.502 809.071L932.502 804.596L936.252 812.054L940.752 807.579L946.752 816.529L949.752 812.054L953.998 819.885L971 828.075Z" fill="black"/>
<path d="M860 828.075L907.498 777L915.5 802.537V866L907.498 809.071L898.498 804.596L894.748 812.054L890.248 807.579L884.248 816.529L881.247 812.054L877.003 819.885L860 828.075Z" fill="black"/>
</g>
<g clip-path="url(#clip37_203_434)">
<path d="M971 171.075L923.502 120L915.5 145.537V209L923.502 152.071L932.502 147.596L936.252 155.054L940.752 150.579L946.752 159.529L949.752 155.054L953.998 162.885L971 171.075Z" fill="black"/>
<path d="M860 171.075L907.498 120L915.5 145.537V209L907.498 152.071L898.498 147.596L894.748 155.054L890.248 150.579L884.248 159.529L881.247 155.054L877.003 162.885L860 171.075Z" fill="black"/>
</g>
<g clip-path="url(#clip38_203_434)">
<path d="M971 1156.07L923.502 1105L915.5 1130.54V1194L923.502 1137.07L932.502 1132.6L936.252 1140.05L940.752 1135.58L946.752 1144.53L949.752 1140.05L953.998 1147.89L971 1156.07Z" fill="black"/>
<path d="M860 1156.07L907.498 1105L915.5 1130.54V1194L907.498 1137.07L898.498 1132.6L894.748 1140.05L890.248 1135.58L884.248 1144.53L881.247 1140.05L877.003 1147.89L860 1156.07Z" fill="black"/>
</g>
<g clip-path="url(#clip39_203_434)">
<path d="M971 499.075L923.502 448L915.5 473.537V537L923.502 480.071L932.502 475.596L936.252 483.054L940.752 478.579L946.752 487.529L949.752 483.054L953.998 490.885L971 499.075Z" fill="black"/>
<path d="M860 499.075L907.498 448L915.5 473.537V537L907.498 480.071L898.498 475.596L894.748 483.054L890.248 478.579L884.248 487.529L881.247 483.054L877.003 490.885L860 499.075Z" fill="black"/>
</g>
<g clip-path="url(#clip40_203_434)">
<path d="M669 828.075L621.502 777L613.5 802.537V866L621.502 809.071L630.502 804.596L634.252 812.054L638.752 807.579L644.752 816.529L647.752 812.054L651.998 819.885L669 828.075Z" fill="black"/>
<path d="M558 828.075L605.498 777L613.5 802.537V866L605.498 809.071L596.498 804.596L592.748 812.054L588.248 807.579L582.248 816.529L579.247 812.054L575.003 819.885L558 828.075Z" fill="black"/>
</g>
<g clip-path="url(#clip41_203_434)">
<path d="M669 171.075L621.502 120L613.5 145.537V209L621.502 152.071L630.502 147.596L634.252 155.054L638.752 150.579L644.752 159.529L647.752 155.054L651.998 162.885L669 171.075Z" fill="black"/>
<path d="M558 171.075L605.498 120L613.5 145.537V209L605.498 152.071L596.498 147.596L592.748 155.054L588.248 150.579L582.248 159.529L579.247 155.054L575.003 162.885L558 171.075Z" fill="black"/>
</g>
<g clip-path="url(#clip42_203_434)">
<path d="M669 1156.07L621.502 1105L613.5 1130.54V1194L621.502 1137.07L630.502 1132.6L634.252 1140.05L638.752 1135.58L644.752 1144.53L647.752 1140.05L651.998 1147.89L669 1156.07Z" fill="black"/>
<path d="M558 1156.07L605.498 1105L613.5 1130.54V1194L605.498 1137.07L596.498 1132.6L592.748 1140.05L588.248 1135.58L582.248 1144.53L579.247 1140.05L575.003 1147.89L558 1156.07Z" fill="black"/>
</g>
<g clip-path="url(#clip43_203_434)">
<path d="M669 499.075L621.502 448L613.5 473.537V537L621.502 480.071L630.502 475.596L634.252 483.054L638.752 478.579L644.752 487.529L647.752 483.054L651.998 490.885L669 499.075Z" fill="black"/>
<path d="M558 499.075L605.498 448L613.5 473.537V537L605.498 480.071L596.498 475.596L592.748 483.054L588.248 478.579L582.248 487.529L579.247 483.054L575.003 490.885L558 499.075Z" fill="black"/>
</g>
<path d="M25.42 730.208L24.908 726.496L30.028 720.352V687.84L26.316 685.28V680.8L43.596 674.4H74.828V709.856H62.54L56.396 704.736V683.104H51.404L48.46 684.384V718.816H70.476L70.988 722.528L64.588 730.208H48.46V755.68L53.58 759.52V764H25.036V759.52L30.028 755.68V730.208H25.42ZM79.42 730.208L78.908 726.496L84.028 720.352V687.84L80.316 685.28V680.8L97.596 674.4H128.828V709.856H116.54L110.396 704.736V683.104H105.404L102.46 684.384V718.816H124.476L124.988 722.528L118.588 730.208H102.46V755.68L107.58 759.52V764H79.036V759.52L84.028 755.68V730.208H79.42Z" fill="black"/>
<path d="M25.42 73.208L24.908 69.496L30.028 63.352V30.84L26.316 28.28V23.8L43.596 17.4H74.828V52.856H62.54L56.396 47.736V26.104H51.404L48.46 27.384V61.816H70.476L70.988 65.528L64.588 73.208H48.46V98.68L53.58 102.52V107H25.036V102.52L30.028 98.68V73.208H25.42ZM79.42 73.208L78.908 69.496L84.028 63.352V30.84L80.316 28.28V23.8L97.596 17.4H128.828V52.856H116.54L110.396 47.736V26.104H105.404L102.46 27.384V61.816H124.476L124.988 65.528L118.588 73.208H102.46V98.68L107.58 102.52V107H79.036V102.52L84.028 98.68V73.208H79.42Z" fill="black"/>
<path d="M25.42 1058.21L24.908 1054.5L30.028 1048.35V1015.84L26.316 1013.28V1008.8L43.596 1002.4H74.828V1037.86H62.54L56.396 1032.74V1011.1H51.404L48.46 1012.38V1046.82H70.476L70.988 1050.53L64.588 1058.21H48.46V1083.68L53.58 1087.52V1092H25.036V1087.52L30.028 1083.68V1058.21H25.42ZM79.42 1058.21L78.908 1054.5L84.028 1048.35V1015.84L80.316 1013.28V1008.8L97.596 1002.4H128.828V1037.86H116.54L110.396 1032.74V1011.1H105.404L102.46 1012.38V1046.82H124.476L124.988 1050.53L118.588 1058.21H102.46V1083.68L107.58 1087.52V1092H79.036V1087.52L84.028 1083.68V1058.21H79.42Z" fill="black"/>
<path d="M25.42 401.208L24.908 397.496L30.028 391.352V358.84L26.316 356.28V351.8L43.596 345.4H74.828V380.856H62.54L56.396 375.736V354.104H51.404L48.46 355.384V389.816H70.476L70.988 393.528L64.588 401.208H48.46V426.68L53.58 430.52V435H25.036V430.52L30.028 426.68V401.208H25.42ZM79.42 401.208L78.908 397.496L84.028 391.352V358.84L80.316 356.28V351.8L97.596 345.4H128.828V380.856H116.54L110.396 375.736V354.104H105.404L102.46 355.384V389.816H124.476L124.988 393.528L118.588 401.208H102.46V426.68L107.58 430.52V435H79.036V430.52L84.028 426.68V401.208H79.42Z" fill="black"/>
<path d="M627.42 729.208L626.908 725.496L632.028 719.352V686.84L628.316 684.28V679.8L645.596 673.4H676.828V708.856H664.54L658.396 703.736V682.104H653.404L650.46 683.384V717.816H672.476L672.988 721.528L666.588 729.208H650.46V754.68L655.58 758.52V763H627.036V758.52L632.028 754.68V729.208H627.42ZM681.42 729.208L680.908 725.496L686.028 719.352V686.84L682.316 684.28V679.8L699.596 673.4H730.828V708.856H718.54L712.396 703.736V682.104H707.404L704.46 683.384V717.816H726.476L726.988 721.528L720.588 729.208H704.46V754.68L709.58 758.52V763H681.036V758.52L686.028 754.68V729.208H681.42Z" fill="black"/>
<path d="M627.42 72.208L626.908 68.496L632.028 62.352V29.84L628.316 27.28V22.8L645.596 16.4H676.828V51.856H664.54L658.396 46.736V25.104H653.404L650.46 26.384V60.816H672.476L672.988 64.528L666.588 72.208H650.46V97.68L655.58 101.52V106H627.036V101.52L632.028 97.68V72.208H627.42ZM681.42 72.208L680.908 68.496L686.028 62.352V29.84L682.316 27.28V22.8L699.596 16.4H730.828V51.856H718.54L712.396 46.736V25.104H707.404L704.46 26.384V60.816H726.476L726.988 64.528L720.588 72.208H704.46V97.68L709.58 101.52V106H681.036V101.52L686.028 97.68V72.208H681.42Z" fill="black"/>
<path d="M627.42 1057.21L626.908 1053.5L632.028 1047.35V1014.84L628.316 1012.28V1007.8L645.596 1001.4H676.828V1036.86H664.54L658.396 1031.74V1010.1H653.404L650.46 1011.38V1045.82H672.476L672.988 1049.53L666.588 1057.21H650.46V1082.68L655.58 1086.52V1091H627.036V1086.52L632.028 1082.68V1057.21H627.42ZM681.42 1057.21L680.908 1053.5L686.028 1047.35V1014.84L682.316 1012.28V1007.8L699.596 1001.4H730.828V1036.86H718.54L712.396 1031.74V1010.1H707.404L704.46 1011.38V1045.82H726.476L726.988 1049.53L720.588 1057.21H704.46V1082.68L709.58 1086.52V1091H681.036V1086.52L686.028 1082.68V1057.21H681.42Z" fill="black"/>
<path d="M627.42 400.208L626.908 396.496L632.028 390.352V357.84L628.316 355.28V350.8L645.596 344.4H676.828V379.856H664.54L658.396 374.736V353.104H653.404L650.46 354.384V388.816H672.476L672.988 392.528L666.588 400.208H650.46V425.68L655.58 429.52V434H627.036V429.52L632.028 425.68V400.208H627.42ZM681.42 400.208L680.908 396.496L686.028 390.352V357.84L682.316 355.28V350.8L699.596 344.4H730.828V379.856H718.54L712.396 374.736V353.104H707.404L704.46 354.384V388.816H726.476L726.988 392.528L720.588 400.208H704.46V425.68L709.58 429.52V434H681.036V429.52L686.028 425.68V400.208H681.42Z" fill="black"/>
<path d="M326.42 730.208L325.908 726.496L331.028 720.352V687.84L327.316 685.28V680.8L344.596 674.4H375.828V709.856H363.54L357.396 704.736V683.104H352.404L349.46 684.384V718.816H371.476L371.988 722.528L365.588 730.208H349.46V755.68L354.58 759.52V764H326.036V759.52L331.028 755.68V730.208H326.42ZM380.42 730.208L379.908 726.496L385.028 720.352V687.84L381.316 685.28V680.8L398.596 674.4H429.828V709.856H417.54L411.396 704.736V683.104H406.404L403.46 684.384V718.816H425.476L425.988 722.528L419.588 730.208H403.46V755.68L408.58 759.52V764H380.036V759.52L385.028 755.68V730.208H380.42Z" fill="black"/>
<path d="M326.42 73.208L325.908 69.496L331.028 63.352V30.84L327.316 28.28V23.8L344.596 17.4H375.828V52.856H363.54L357.396 47.736V26.104H352.404L349.46 27.384V61.816H371.476L371.988 65.528L365.588 73.208H349.46V98.68L354.58 102.52V107H326.036V102.52L331.028 98.68V73.208H326.42ZM380.42 73.208L379.908 69.496L385.028 63.352V30.84L381.316 28.28V23.8L398.596 17.4H429.828V52.856H417.54L411.396 47.736V26.104H406.404L403.46 27.384V61.816H425.476L425.988 65.528L419.588 73.208H403.46V98.68L408.58 102.52V107H380.036V102.52L385.028 98.68V73.208H380.42Z" fill="black"/>
<path d="M326.42 1058.21L325.908 1054.5L331.028 1048.35V1015.84L327.316 1013.28V1008.8L344.596 1002.4H375.828V1037.86H363.54L357.396 1032.74V1011.1H352.404L349.46 1012.38V1046.82H371.476L371.988 1050.53L365.588 1058.21H349.46V1083.68L354.58 1087.52V1092H326.036V1087.52L331.028 1083.68V1058.21H326.42ZM380.42 1058.21L379.908 1054.5L385.028 1048.35V1015.84L381.316 1013.28V1008.8L398.596 1002.4H429.828V1037.86H417.54L411.396 1032.74V1011.1H406.404L403.46 1012.38V1046.82H425.476L425.988 1050.53L419.588 1058.21H403.46V1083.68L408.58 1087.52V1092H380.036V1087.52L385.028 1083.68V1058.21H380.42Z" fill="black"/>
<path d="M326.42 401.208L325.908 397.496L331.028 391.352V358.84L327.316 356.28V351.8L344.596 345.4H375.828V380.856H363.54L357.396 375.736V354.104H352.404L349.46 355.384V389.816H371.476L371.988 393.528L365.588 401.208H349.46V426.68L354.58 430.52V435H326.036V430.52L331.028 426.68V401.208H326.42ZM380.42 401.208L379.908 397.496L385.028 391.352V358.84L381.316 356.28V351.8L398.596 345.4H429.828V380.856H417.54L411.396 375.736V354.104H406.404L403.46 355.384V389.816H425.476L425.988 393.528L419.588 401.208H403.46V426.68L408.58 430.52V435H380.036V430.52L385.028 426.68V401.208H380.42Z" fill="black"/>
<path d="M928.42 729.208L927.908 725.496L933.028 719.352V686.84L929.316 684.28V679.8L946.596 673.4H977.828V708.856H965.54L959.396 703.736V682.104H954.404L951.46 683.384V717.816H973.476L973.988 721.528L967.588 729.208H951.46V754.68L956.58 758.52V763H928.036V758.52L933.028 754.68V729.208H928.42ZM982.42 729.208L981.908 725.496L987.028 719.352V686.84L983.316 684.28V679.8L1000.6 673.4H1031.83V708.856H1019.54L1013.4 703.736V682.104H1008.4L1005.46 683.384V717.816H1027.48L1027.99 721.528L1021.59 729.208H1005.46V754.68L1010.58 758.52V763H982.036V758.52L987.028 754.68V729.208H982.42Z" fill="black"/>
<path d="M928.42 72.208L927.908 68.496L933.028 62.352V29.84L929.316 27.28V22.8L946.596 16.4H977.828V51.856H965.54L959.396 46.736V25.104H954.404L951.46 26.384V60.816H973.476L973.988 64.528L967.588 72.208H951.46V97.68L956.58 101.52V106H928.036V101.52L933.028 97.68V72.208H928.42ZM982.42 72.208L981.908 68.496L987.028 62.352V29.84L983.316 27.28V22.8L1000.6 16.4H1031.83V51.856H1019.54L1013.4 46.736V25.104H1008.4L1005.46 26.384V60.816H1027.48L1027.99 64.528L1021.59 72.208H1005.46V97.68L1010.58 101.52V106H982.036V101.52L987.028 97.68V72.208H982.42Z" fill="black"/>
<path d="M928.42 1057.21L927.908 1053.5L933.028 1047.35V1014.84L929.316 1012.28V1007.8L946.596 1001.4H977.828V1036.86H965.54L959.396 1031.74V1010.1H954.404L951.46 1011.38V1045.82H973.476L973.988 1049.53L967.588 1057.21H951.46V1082.68L956.58 1086.52V1091H928.036V1086.52L933.028 1082.68V1057.21H928.42ZM982.42 1057.21L981.908 1053.5L987.028 1047.35V1014.84L983.316 1012.28V1007.8L1000.6 1001.4H1031.83V1036.86H1019.54L1013.4 1031.74V1010.1H1008.4L1005.46 1011.38V1045.82H1027.48L1027.99 1049.53L1021.59 1057.21H1005.46V1082.68L1010.58 1086.52V1091H982.036V1086.52L987.028 1082.68V1057.21H982.42Z" fill="black"/>
<path d="M928.42 400.208L927.908 396.496L933.028 390.352V357.84L929.316 355.28V350.8L946.596 344.4H977.828V379.856H965.54L959.396 374.736V353.104H954.404L951.46 354.384V388.816H973.476L973.988 392.528L967.588 400.208H951.46V425.68L956.58 429.52V434H928.036V429.52L933.028 425.68V400.208H928.42ZM982.42 400.208L981.908 396.496L987.028 390.352V357.84L983.316 355.28V350.8L1000.6 344.4H1031.83V379.856H1019.54L1013.4 374.736V353.104H1008.4L1005.46 354.384V388.816H1027.48L1027.99 392.528L1021.59 400.208H1005.46V425.68L1010.58 429.52V434H982.036V429.52L987.028 425.68V400.208H982.42Z" fill="black"/>
<g clip-path="url(#clip46_203_434)">
<path d="M0.00180214 916.856L63.3344 985.333L74.0031 951.093L73.9999 866.003L63.3328 942.333L51.333 948.334L46.3326 938.334L40.3328 944.334L32.3324 932.334L28.3326 938.334L22.6722 927.835L0.00180214 916.856Z" fill="#E95D39"/>
<path d="M148.002 916.85L84.6744 985.332L74.0031 951.093L73.9999 866.003L84.6728 942.332L96.673 948.332L101.673 938.332L107.673 944.331L115.672 932.331L119.673 938.331L125.332 927.831L148.002 916.85Z" fill="#E95D39"/>
</g>
<g clip-path="url(#clip47_203_434)">
<path d="M0.00180214 259.856L63.3344 328.333L74.0031 294.093L73.9999 209.003L63.3328 285.333L51.333 291.334L46.3326 281.334L40.3328 287.334L32.3324 275.334L28.3326 281.334L22.6722 270.835L0.00180214 259.856Z" fill="#E95D39"/>
<path d="M148.002 259.85L84.6744 328.332L74.0031 294.093L73.9999 209.003L84.6728 285.332L96.673 291.332L101.673 281.332L107.673 287.331L115.672 275.331L119.673 281.331L125.332 270.831L148.002 259.85Z" fill="#E95D39"/>
</g>
<g clip-path="url(#clip48_203_434)">
<path d="M0.00180214 1244.86L63.3344 1313.33L74.0031 1279.09L73.9999 1194L63.3328 1270.33L51.333 1276.33L46.3326 1266.33L40.3328 1272.33L32.3324 1260.33L28.3326 1266.33L22.6722 1255.83L0.00180214 1244.86Z" fill="#E95D39"/>
<path d="M148.002 1244.85L84.6744 1313.33L74.0031 1279.09L73.9999 1194L84.6728 1270.33L96.673 1276.33L101.673 1266.33L107.673 1272.33L115.672 1260.33L119.673 1266.33L125.332 1255.83L148.002 1244.85Z" fill="#E95D39"/>
</g>
<g clip-path="url(#clip49_203_434)">
<path d="M0.00180214 587.856L63.3344 656.333L74.0031 622.093L73.9999 537.003L63.3328 613.333L51.333 619.334L46.3326 609.334L40.3328 615.334L32.3324 603.334L28.3326 609.334L22.6722 598.835L0.00180214 587.856Z" fill="#E95D39"/>
<path d="M148.002 587.85L84.6744 656.332L74.0031 622.093L73.9999 537.003L84.6728 613.332L96.673 619.332L101.673 609.332L107.673 615.331L115.672 603.331L119.673 609.331L125.332 598.831L148.002 587.85Z" fill="#E95D39"/>
</g>
<g clip-path="url(#clip50_203_434)">
<path d="M592.002 916.856L655.335 985.333L666.004 951.093L666 866.003L655.333 942.333L643.333 948.334L638.333 938.334L632.333 944.334L624.333 932.334L620.333 938.334L614.673 927.835L592.002 916.856Z" fill="#E95D39"/>
<path d="M740.002 916.85L676.675 985.332L666.004 951.093L666 866.003L676.673 942.332L688.673 948.332L693.673 938.332L699.673 944.331L707.673 932.331L711.673 938.331L717.333 927.831L740.002 916.85Z" fill="#E95D39"/>
</g>
<g clip-path="url(#clip51_203_434)">
<path d="M592.002 259.856L655.335 328.333L666.004 294.093L666 209.003L655.333 285.333L643.333 291.334L638.333 281.334L632.333 287.334L624.333 275.334L620.333 281.334L614.673 270.835L592.002 259.856Z" fill="#E95D39"/>
<path d="M740.002 259.85L676.675 328.332L666.004 294.093L666 209.003L676.673 285.332L688.673 291.332L693.673 281.332L699.673 287.331L707.673 275.331L711.673 281.331L717.333 270.831L740.002 259.85Z" fill="#E95D39"/>
</g>
<g clip-path="url(#clip52_203_434)">
<path d="M592.002 1244.86L655.335 1313.33L666.004 1279.09L666 1194L655.333 1270.33L643.333 1276.33L638.333 1266.33L632.333 1272.33L624.333 1260.33L620.333 1266.33L614.673 1255.83L592.002 1244.86Z" fill="#E95D39"/>
<path d="M740.002 1244.85L676.675 1313.33L666.004 1279.09L666 1194L676.673 1270.33L688.673 1276.33L693.673 1266.33L699.673 1272.33L707.673 1260.33L711.673 1266.33L717.333 1255.83L740.002 1244.85Z" fill="#E95D39"/>
</g>
<g clip-path="url(#clip53_203_434)">
<path d="M592.002 587.856L655.335 656.333L666.004 622.093L666 537.003L655.333 613.333L643.333 619.334L638.333 609.334L632.333 615.334L624.333 603.334L620.333 609.334L614.673 598.835L592.002 587.856Z" fill="#E95D39"/>
<path d="M740.002 587.85L676.675 656.332L666.004 622.093L666 537.003L676.673 613.332L688.673 619.332L693.673 609.332L699.673 615.331L707.673 603.331L711.673 609.331L717.333 598.831L740.002 587.85Z" fill="#E95D39"/>
</g>
<g clip-path="url(#clip54_203_434)">
<path d="M296.002 916.856L359.335 985.333L370.004 951.093L370 866.003L359.333 942.333L347.333 948.334L342.333 938.334L336.333 944.334L328.333 932.334L324.333 938.334L318.673 927.835L296.002 916.856Z" fill="#E95D39"/>
<path d="M444.002 916.85L380.675 985.332L370.004 951.093L370 866.003L380.673 942.332L392.673 948.332L397.673 938.332L403.673 944.331L411.673 932.331L415.673 938.331L421.333 927.831L444.002 916.85Z" fill="#E95D39"/>
</g>
<g clip-path="url(#clip55_203_434)">
<path d="M296.002 259.856L359.335 328.333L370.004 294.093L370 209.003L359.333 285.333L347.333 291.334L342.333 281.334L336.333 287.334L328.333 275.334L324.333 281.334L318.673 270.835L296.002 259.856Z" fill="#E95D39"/>
<path d="M444.002 259.85L380.675 328.332L370.004 294.093L370 209.003L380.673 285.332L392.673 291.332L397.673 281.332L403.673 287.331L411.673 275.331L415.673 281.331L421.333 270.831L444.002 259.85Z" fill="#E95D39"/>
</g>
<g clip-path="url(#clip56_203_434)">
<path d="M296.002 1244.86L359.335 1313.33L370.004 1279.09L370 1194L359.333 1270.33L347.333 1276.33L342.333 1266.33L336.333 1272.33L328.333 1260.33L324.333 1266.33L318.673 1255.83L296.002 1244.86Z" fill="#E95D39"/>
<path d="M444.002 1244.85L380.675 1313.33L370.004 1279.09L370 1194L380.673 1270.33L392.673 1276.33L397.673 1266.33L403.673 1272.33L411.673 1260.33L415.673 1266.33L421.333 1255.83L444.002 1244.85Z" fill="#E95D39"/>
</g>
<g clip-path="url(#clip57_203_434)">
<path d="M296.002 587.856L359.335 656.333L370.004 622.093L370 537.003L359.333 613.333L347.333 619.334L342.333 609.334L336.333 615.334L328.333 603.334L324.333 609.334L318.673 598.835L296.002 587.856Z" fill="#E95D39"/>
<path d="M444.002 587.85L380.675 656.332L370.004 622.093L370 537.003L380.673 613.332L392.673 619.332L397.673 609.332L403.673 615.331L411.673 603.331L415.673 609.331L421.333 598.831L444.002 587.85Z" fill="#E95D39"/>
</g>
<g clip-path="url(#clip58_203_434)">
<path d="M888.002 916.856L951.335 985.333L962.004 951.093L962 866.003L951.333 942.333L939.333 948.334L934.333 938.334L928.333 944.334L920.333 932.334L916.333 938.334L910.673 927.835L888.002 916.856Z" fill="#E95D39"/>
<path d="M1036 916.85L972.675 985.332L962.004 951.093L962 866.003L972.673 942.332L984.673 948.332L989.673 938.332L995.673 944.331L1003.67 932.331L1007.67 938.331L1013.33 927.831L1036 916.85Z" fill="#E95D39"/>
</g>
<g clip-path="url(#clip59_203_434)">
<path d="M888.002 259.856L951.335 328.333L962.004 294.093L962 209.003L951.333 285.333L939.333 291.334L934.333 281.334L928.333 287.334L920.333 275.334L916.333 281.334L910.673 270.835L888.002 259.856Z" fill="#E95D39"/>
<path d="M1036 259.85L972.675 328.332L962.004 294.093L962 209.003L972.673 285.332L984.673 291.332L989.673 281.332L995.673 287.331L1003.67 275.331L1007.67 281.331L1013.33 270.831L1036 259.85Z" fill="#E95D39"/>
</g>
<g clip-path="url(#clip60_203_434)">
<path d="M888.002 1244.86L951.335 1313.33L962.004 1279.09L962 1194L951.333 1270.33L939.333 1276.33L934.333 1266.33L928.333 1272.33L920.333 1260.33L916.333 1266.33L910.673 1255.83L888.002 1244.86Z" fill="#E95D39"/>
<path d="M1036 1244.85L972.675 1313.33L962.004 1279.09L962 1194L972.673 1270.33L984.673 1276.33L989.673 1266.33L995.673 1272.33L1003.67 1260.33L1007.67 1266.33L1013.33 1255.83L1036 1244.85Z" fill="#E95D39"/>
</g>
<g clip-path="url(#clip61_203_434)">
<path d="M888.002 587.856L951.335 656.333L962.004 622.093L962 537.003L951.333 613.333L939.333 619.334L934.333 609.334L928.333 615.334L920.333 603.334L916.333 609.334L910.673 598.835L888.002 587.856Z" fill="#E95D39"/>
<path d="M1036 587.85L972.675 656.332L962.004 622.093L962 537.003L972.673 613.332L984.673 619.332L989.673 609.332L995.673 615.331L1003.67 603.331L1007.67 609.331L1013.33 598.831L1036 587.85Z" fill="#E95D39"/>
</g>
<g clip-path="url(#clip62_203_434)">
<path d="M303 726.48L239.67 658L229 692.24V777.33L239.67 701L251.67 695L256.67 705L262.67 699L270.67 711L274.67 705L280.33 715.5L303 726.48Z" fill="#E95D39"/>
<path d="M155 726.48L218.33 658L229 692.24V777.33L218.33 701L206.33 695L201.33 705L195.33 699L187.33 711L183.33 705L177.67 715.5L155 726.48Z" fill="#E95D39"/>
</g>
<g clip-path="url(#clip63_203_434)">
<path d="M303 69.48L239.67 1L229 35.24V120.33L239.67 44L251.67 38L256.67 48L262.67 42L270.67 54L274.67 48L280.33 58.5L303 69.48Z" fill="#E95D39"/>
<path d="M155 69.48L218.33 1L229 35.24V120.33L218.33 44L206.33 38L201.33 48L195.33 42L187.33 54L183.33 48L177.67 58.5L155 69.48Z" fill="#E95D39"/>
</g>
<g clip-path="url(#clip64_203_434)">
<path d="M303 1054.48L239.67 986L229 1020.24V1105.33L239.67 1029L251.67 1023L256.67 1033L262.67 1027L270.67 1039L274.67 1033L280.33 1043.5L303 1054.48Z" fill="#E95D39"/>
<path d="M155 1054.48L218.33 986L229 1020.24V1105.33L218.33 1029L206.33 1023L201.33 1033L195.33 1027L187.33 1039L183.33 1033L177.67 1043.5L155 1054.48Z" fill="#E95D39"/>
</g>
<g clip-path="url(#clip65_203_434)">
<path d="M303 397.48L239.67 329L229 363.24V448.33L239.67 372L251.67 366L256.67 376L262.67 370L270.67 382L274.67 376L280.33 386.5L303 397.48Z" fill="#E95D39"/>
<path d="M155 397.48L218.33 329L229 363.24V448.33L218.33 372L206.33 366L201.33 376L195.33 370L187.33 382L183.33 376L177.67 386.5L155 397.48Z" fill="#E95D39"/>
</g>
<g clip-path="url(#clip66_203_434)">
<path d="M905 725.48L841.67 657L831 691.24V776.33L841.67 700L853.67 694L858.67 704L864.67 698L872.67 710L876.67 704L882.33 714.5L905 725.48Z" fill="#E95D39"/>
<path d="M757 725.48L820.33 657L831 691.24V776.33L820.33 700L808.33 694L803.33 704L797.33 698L789.33 710L785.33 704L779.67 714.5L757 725.48Z" fill="#E95D39"/>
</g>
<g clip-path="url(#clip67_203_434)">
<path d="M905 68.48L841.67 0L831 34.24V119.33L841.67 43L853.67 37L858.67 47L864.67 41L872.67 53L876.67 47L882.33 57.5L905 68.48Z" fill="#E95D39"/>
<path d="M757 68.48L820.33 0L831 34.24V119.33L820.33 43L808.33 37L803.33 47L797.33 41L789.33 53L785.33 47L779.67 57.5L757 68.48Z" fill="#E95D39"/>
</g>
<g clip-path="url(#clip68_203_434)">
<path d="M905 1053.48L841.67 985L831 1019.24V1104.33L841.67 1028L853.67 1022L858.67 1032L864.67 1026L872.67 1038L876.67 1032L882.33 1042.5L905 1053.48Z" fill="#E95D39"/>
<path d="M757 1053.48L820.33 985L831 1019.24V1104.33L820.33 1028L808.33 1022L803.33 1032L797.33 1026L789.33 1038L785.33 1032L779.67 1042.5L757 1053.48Z" fill="#E95D39"/>
</g>
<g clip-path="url(#clip69_203_434)">
<path d="M905 396.48L841.67 328L831 362.24V447.33L841.67 371L853.67 365L858.67 375L864.67 369L872.67 381L876.67 375L882.33 385.5L905 396.48Z" fill="#E95D39"/>
<path d="M757 396.48L820.33 328L831 362.24V447.33L820.33 371L808.33 365L803.33 375L797.33 369L789.33 381L785.33 375L779.67 385.5L757 396.48Z" fill="#E95D39"/>
</g>
<g clip-path="url(#clip70_203_434)">
<path d="M604 726.48L540.67 658L530 692.24V777.33L540.67 701L552.67 695L557.67 705L563.67 699L571.67 711L575.67 705L581.33 715.5L604 726.48Z" fill="#E95D39"/>
<path d="M456 726.48L519.33 658L530 692.24V777.33L519.33 701L507.33 695L502.33 705L496.33 699L488.33 711L484.33 705L478.67 715.5L456 726.48Z" fill="#E95D39"/>
</g>
<g clip-path="url(#clip71_203_434)">
<path d="M604 69.48L540.67 1L530 35.24V120.33L540.67 44L552.67 38L557.67 48L563.67 42L571.67 54L575.67 48L581.33 58.5L604 69.48Z" fill="#E95D39"/>
<path d="M456 69.48L519.33 1L530 35.24V120.33L519.33 44L507.33 38L502.33 48L496.33 42L488.33 54L484.33 48L478.67 58.5L456 69.48Z" fill="#E95D39"/>
</g>
<g clip-path="url(#clip72_203_434)">
<path d="M604 1054.48L540.67 986L530 1020.24V1105.33L540.67 1029L552.67 1023L557.67 1033L563.67 1027L571.67 1039L575.67 1033L581.33 1043.5L604 1054.48Z" fill="#E95D39"/>
<path d="M456 1054.48L519.33 986L530 1020.24V1105.33L519.33 1029L507.33 1023L502.33 1033L496.33 1027L488.33 1039L484.33 1033L478.67 1043.5L456 1054.48Z" fill="#E95D39"/>
</g>
<g clip-path="url(#clip73_203_434)">
<path d="M604 397.48L540.67 329L530 363.24V448.33L540.67 372L552.67 366L557.67 376L563.67 370L571.67 382L575.67 376L581.33 386.5L604 397.48Z" fill="#E95D39"/>
<path d="M456 397.48L519.33 329L530 363.24V448.33L519.33 372L507.33 366L502.33 376L496.33 370L488.33 382L484.33 376L478.67 386.5L456 397.48Z" fill="#E95D39"/>
</g>
<g clip-path="url(#clip74_203_434)">
<path d="M1206 725.48L1142.67 657L1132 691.24V776.33L1142.67 700L1154.67 694L1159.67 704L1165.67 698L1173.67 710L1177.67 704L1183.33 714.5L1206 725.48Z" fill="#E95D39"/>
<path d="M1058 725.48L1121.33 657L1132 691.24V776.33L1121.33 700L1109.33 694L1104.33 704L1098.33 698L1090.33 710L1086.33 704L1080.67 714.5L1058 725.48Z" fill="#E95D39"/>
</g>
<g clip-path="url(#clip75_203_434)">
<path d="M1206 68.48L1142.67 0L1132 34.24V119.33L1142.67 43L1154.67 37L1159.67 47L1165.67 41L1173.67 53L1177.67 47L1183.33 57.5L1206 68.48Z" fill="#E95D39"/>
<path d="M1058 68.48L1121.33 0L1132 34.24V119.33L1121.33 43L1109.33 37L1104.33 47L1098.33 41L1090.33 53L1086.33 47L1080.67 57.5L1058 68.48Z" fill="#E95D39"/>
</g>
<g clip-path="url(#clip76_203_434)">
<path d="M1206 1053.48L1142.67 985L1132 1019.24V1104.33L1142.67 1028L1154.67 1022L1159.67 1032L1165.67 1026L1173.67 1038L1177.67 1032L1183.33 1042.5L1206 1053.48Z" fill="#E95D39"/>
<path d="M1058 1053.48L1121.33 985L1132 1019.24V1104.33L1121.33 1028L1109.33 1022L1104.33 1032L1098.33 1026L1090.33 1038L1086.33 1032L1080.67 1042.5L1058 1053.48Z" fill="#E95D39"/>
</g>
<g clip-path="url(#clip77_203_434)">
<path d="M1206 396.48L1142.67 328L1132 362.24V447.33L1142.67 371L1154.67 365L1159.67 375L1165.67 369L1173.67 381L1177.67 375L1183.33 385.5L1206 396.48Z" fill="#E95D39"/>
<path d="M1058 396.48L1121.33 328L1132 362.24V447.33L1121.33 371L1109.33 365L1104.33 375L1098.33 369L1090.33 381L1086.33 375L1080.67 385.5L1058 396.48Z" fill="#E95D39"/>
</g>
<defs>
<clipPath id="clip0_203_434">
<rect width="148" height="119.33" fill="white" transform="translate(148 866)"/>
</clipPath>
<clipPath id="clip1_203_434">
<rect width="148" height="119.33" fill="white" transform="translate(148 209)"/>
</clipPath>
<clipPath id="clip2_203_434">
<rect width="148" height="119.33" fill="white" transform="translate(148 1194)"/>
</clipPath>
<clipPath id="clip3_203_434">
<rect width="148" height="119.33" fill="white" transform="translate(148 537)"/>
</clipPath>
<clipPath id="clip4_203_434">
<rect width="148" height="119.33" fill="white" transform="translate(740 866)"/>
</clipPath>
<clipPath id="clip5_203_434">
<rect width="148" height="119.33" fill="white" transform="translate(740 209)"/>
</clipPath>
<clipPath id="clip6_203_434">
<rect width="148" height="119.33" fill="white" transform="translate(740 1194)"/>
</clipPath>
<clipPath id="clip7_203_434">
<rect width="148" height="119.33" fill="white" transform="translate(740 537)"/>
</clipPath>
<clipPath id="clip8_203_434">
<rect width="148" height="119.33" fill="white" transform="translate(444 866)"/>
</clipPath>
<clipPath id="clip9_203_434">
<rect width="148" height="119.33" fill="white" transform="translate(444 209)"/>
</clipPath>
<clipPath id="clip10_203_434">
<rect width="148" height="119.33" fill="white" transform="translate(444 1194)"/>
</clipPath>
<clipPath id="clip11_203_434">
<rect width="148" height="119.33" fill="white" transform="translate(444 537)"/>
</clipPath>
<clipPath id="clip12_203_434">
<rect width="148" height="119.33" fill="white" transform="translate(1036 866)"/>
</clipPath>
<clipPath id="clip13_203_434">
<rect width="148" height="119.33" fill="white" transform="translate(1036 209)"/>
</clipPath>
<clipPath id="clip14_203_434">
<rect width="148" height="119.33" fill="white" transform="translate(1036 1194)"/>
</clipPath>
<clipPath id="clip15_203_434">
<rect width="148" height="119.33" fill="white" transform="translate(1036 537)"/>
</clipPath>
<clipPath id="clip16_203_434">
<rect width="111" height="89" fill="white" transform="translate(105 777)"/>
</clipPath>
<clipPath id="clip17_203_434">
<rect width="111" height="89" fill="white" transform="translate(105 120)"/>
</clipPath>
<clipPath id="clip18_203_434">
<rect width="111" height="89" fill="white" transform="translate(105 1105)"/>
</clipPath>
<clipPath id="clip19_203_434">
<rect width="111" height="89" fill="white" transform="translate(105 448)"/>
</clipPath>
<clipPath id="clip20_203_434">
<rect width="111" height="89" fill="white" transform="translate(709 777)"/>
</clipPath>
<clipPath id="clip21_203_434">
<rect width="111" height="89" fill="white" transform="translate(709 120)"/>
</clipPath>
<clipPath id="clip22_203_434">
<rect width="111" height="89" fill="white" transform="translate(709 1105)"/>
</clipPath>
<clipPath id="clip23_203_434">
<rect width="111" height="89" fill="white" transform="translate(709 448)"/>
</clipPath>
<clipPath id="clip24_203_434">
<rect width="111" height="89" fill="white" transform="translate(407 777)"/>
</clipPath>
<clipPath id="clip25_203_434">
<rect width="111" height="89" fill="white" transform="translate(407 120)"/>
</clipPath>
<clipPath id="clip26_203_434">
<rect width="111" height="89" fill="white" transform="translate(407 1105)"/>
</clipPath>
<clipPath id="clip27_203_434">
<rect width="111" height="89" fill="white" transform="translate(407 448)"/>
</clipPath>
<clipPath id="clip28_203_434">
<rect width="111" height="89" fill="white" transform="translate(1011 777)"/>
</clipPath>
<clipPath id="clip29_203_434">
<rect width="111" height="89" fill="white" transform="translate(1011 120)"/>
</clipPath>
<clipPath id="clip30_203_434">
<rect width="111" height="89" fill="white" transform="translate(1011 1105)"/>
</clipPath>
<clipPath id="clip31_203_434">
<rect width="111" height="89" fill="white" transform="translate(1011 448)"/>
</clipPath>
<clipPath id="clip32_203_434">
<rect width="111" height="89" fill="white" transform="translate(256 777)"/>
</clipPath>
<clipPath id="clip33_203_434">
<rect width="111" height="89" fill="white" transform="translate(256 120)"/>
</clipPath>
<clipPath id="clip34_203_434">
<rect width="111" height="89" fill="white" transform="translate(256 1105)"/>
</clipPath>
<clipPath id="clip35_203_434">
<rect width="111" height="89" fill="white" transform="translate(256 448)"/>
</clipPath>
<clipPath id="clip36_203_434">
<rect width="111" height="89" fill="white" transform="translate(860 777)"/>
</clipPath>
<clipPath id="clip37_203_434">
<rect width="111" height="89" fill="white" transform="translate(860 120)"/>
</clipPath>
<clipPath id="clip38_203_434">
<rect width="111" height="89" fill="white" transform="translate(860 1105)"/>
</clipPath>
<clipPath id="clip39_203_434">
<rect width="111" height="89" fill="white" transform="translate(860 448)"/>
</clipPath>
<clipPath id="clip40_203_434">
<rect width="111" height="89" fill="white" transform="translate(558 777)"/>
</clipPath>
<clipPath id="clip41_203_434">
<rect width="111" height="89" fill="white" transform="translate(558 120)"/>
</clipPath>
<clipPath id="clip42_203_434">
<rect width="111" height="89" fill="white" transform="translate(558 1105)"/>
</clipPath>
<clipPath id="clip43_203_434">
<rect width="111" height="89" fill="white" transform="translate(558 448)"/>
</clipPath>
<clipPath id="clip44_203_434">
<rect width="111" height="89" fill="white" transform="translate(1162 777)"/>
</clipPath>
<clipPath id="clip45_203_434">
<rect width="111" height="89" fill="white" transform="translate(1162 1105)"/>
</clipPath>
<clipPath id="clip46_203_434">
<rect width="148" height="119.33" fill="white" transform="translate(148.004 985.33) rotate(179.998)"/>
</clipPath>
<clipPath id="clip47_203_434">
<rect width="148" height="119.33" fill="white" transform="translate(148.004 328.33) rotate(179.998)"/>
</clipPath>
<clipPath id="clip48_203_434">
<rect width="148" height="119.33" fill="white" transform="translate(148.004 1313.33) rotate(179.998)"/>
</clipPath>
<clipPath id="clip49_203_434">
<rect width="148" height="119.33" fill="white" transform="translate(148.004 656.33) rotate(179.998)"/>
</clipPath>
<clipPath id="clip50_203_434">
<rect width="148" height="119.33" fill="white" transform="translate(740.005 985.33) rotate(179.998)"/>
</clipPath>
<clipPath id="clip51_203_434">
<rect width="148" height="119.33" fill="white" transform="translate(740.005 328.33) rotate(179.998)"/>
</clipPath>
<clipPath id="clip52_203_434">
<rect width="148" height="119.33" fill="white" transform="translate(740.005 1313.33) rotate(179.998)"/>
</clipPath>
<clipPath id="clip53_203_434">
<rect width="148" height="119.33" fill="white" transform="translate(740.005 656.33) rotate(179.998)"/>
</clipPath>
<clipPath id="clip54_203_434">
<rect width="148" height="119.33" fill="white" transform="translate(444.005 985.33) rotate(179.998)"/>
</clipPath>
<clipPath id="clip55_203_434">
<rect width="148" height="119.33" fill="white" transform="translate(444.005 328.33) rotate(179.998)"/>
</clipPath>
<clipPath id="clip56_203_434">
<rect width="148" height="119.33" fill="white" transform="translate(444.005 1313.33) rotate(179.998)"/>
</clipPath>
<clipPath id="clip57_203_434">
<rect width="148" height="119.33" fill="white" transform="translate(444.005 656.33) rotate(179.998)"/>
</clipPath>
<clipPath id="clip58_203_434">
<rect width="148" height="119.33" fill="white" transform="translate(1036 985.33) rotate(179.998)"/>
</clipPath>
<clipPath id="clip59_203_434">
<rect width="148" height="119.33" fill="white" transform="translate(1036 328.33) rotate(179.998)"/>
</clipPath>
<clipPath id="clip60_203_434">
<rect width="148" height="119.33" fill="white" transform="translate(1036 1313.33) rotate(179.998)"/>
</clipPath>
<clipPath id="clip61_203_434">
<rect width="148" height="119.33" fill="white" transform="translate(1036 656.33) rotate(179.998)"/>
</clipPath>
<clipPath id="clip62_203_434">
<rect width="148" height="119.33" fill="white" transform="translate(155 658)"/>
</clipPath>
<clipPath id="clip63_203_434">
<rect width="148" height="119.33" fill="white" transform="translate(155 1)"/>
</clipPath>
<clipPath id="clip64_203_434">
<rect width="148" height="119.33" fill="white" transform="translate(155 986)"/>
</clipPath>
<clipPath id="clip65_203_434">
<rect width="148" height="119.33" fill="white" transform="translate(155 329)"/>
</clipPath>
<clipPath id="clip66_203_434">
<rect width="148" height="119.33" fill="white" transform="translate(757 657)"/>
</clipPath>
<clipPath id="clip67_203_434">
<rect width="148" height="119.33" fill="white" transform="translate(757)"/>
</clipPath>
<clipPath id="clip68_203_434">
<rect width="148" height="119.33" fill="white" transform="translate(757 985)"/>
</clipPath>
<clipPath id="clip69_203_434">
<rect width="148" height="119.33" fill="white" transform="translate(757 328)"/>
</clipPath>
<clipPath id="clip70_203_434">
<rect width="148" height="119.33" fill="white" transform="translate(456 658)"/>
</clipPath>
<clipPath id="clip71_203_434">
<rect width="148" height="119.33" fill="white" transform="translate(456 1)"/>
</clipPath>
<clipPath id="clip72_203_434">
<rect width="148" height="119.33" fill="white" transform="translate(456 986)"/>
</clipPath>
<clipPath id="clip73_203_434">
<rect width="148" height="119.33" fill="white" transform="translate(456 329)"/>
</clipPath>
<clipPath id="clip74_203_434">
<rect width="148" height="119.33" fill="white" transform="translate(1058 657)"/>
</clipPath>
<clipPath id="clip75_203_434">
<rect width="148" height="119.33" fill="white" transform="translate(1058)"/>
</clipPath>
<clipPath id="clip76_203_434">
<rect width="148" height="119.33" fill="white" transform="translate(1058 985)"/>
</clipPath>
<clipPath id="clip77_203_434">
<rect width="148" height="119.33" fill="white" transform="translate(1058 328)"/>
</clipPath>
</defs>
</svg>
