<?xml version="1.0" encoding="UTF-8"?>
<svg id="Layer_1" data-name="Layer 1" xmlns="http://www.w3.org/2000/svg" viewBox="0 0 372 134.78">
  <defs>
    <style>
      .cls-1 {
        stroke: #020c1c;
        stroke-miterlimit: 10;
      }

      .cls-1, .cls-2 {
        fill: #020c1c;
      }
    </style>
  </defs>
  <g>
    <path class="cls-2" d="m81.3,46.11l2.88-3.46v-18.29l-2.09-1.44v-2.52l9.72-3.6h17.57v19.95h-6.91l-3.46-2.88v-12.17h-2.81l-1.66.72v19.37h12.39l.29,2.09-3.6,4.32h-9.07v14.33l2.88,2.16v2.52h-16.06v-2.52l2.81-2.16v-14.33h-2.59l-.29-2.09Z"/>
    <path class="cls-2" d="m113.41,34.52l-1.08-1.15v-2.23l9.94-3.67h5.83l9.94,3.67v2.23l-1.08,1.15v26.21l1.08,1.08v2.3l-9.94,3.67h-5.83l-9.94-3.67v-2.3l1.08-1.08v-26.21Zm9.5,27.87l1.73,1.01h1.08l1.73-1.01v-29.52l-1.73-1.01h-1.08l-1.73,1.01v29.52Z"/>
    <path class="cls-2" d="m141.99,34.52l-1.08-1.15v-2.23l9.94-3.67h5.83l9.94,3.67v2.23l-1.08,1.15v26.21l1.08,1.08v2.3l-9.94,3.67h-5.83l-9.94-3.67v-2.3l1.08-1.08v-26.21Zm9.5,27.87l1.73,1.01h1.08l1.73-1.01v-29.52l-1.73-1.01h-1.08l-1.73,1.01v29.52Z"/>
    <path class="cls-2" d="m183.25,46.11l2.88-3.46v-18.29l-2.09-1.44v-2.52l9.72-3.6h17.57v19.95h-6.91l-3.46-2.88v-12.17h-2.81l-1.66.72v19.37h12.39l.29,2.09-3.6,4.32h-9.07v14.33l2.88,2.16v2.52h-16.06v-2.52l2.81-2.16v-14.33h-2.59l-.29-2.09Z"/>
    <path class="cls-2" d="m213.2,46.69l2.16-2.52v-9.65l-1.08-1.15v-2.23l9.94-3.67h5.83l9.94,3.67v2.23l-1.08,1.15v8.5l.43,2.09-3.1,3.67h-11.38v13.61l1.73,1.01h1.08l1.73-1.01v-7.63l3.1-2.74h6.41v8.71l1.08,1.08v2.3l-9.94,3.67h-5.83l-9.94-3.67v-2.3l1.08-1.08v-11.95h-1.73l-.43-2.09Zm11.67-3.67h3.74l.79-.86v-9.29l-1.73-1.01h-1.08l-1.73,1.01v10.15Z"/>
    <path class="cls-2" d="m256.25,31.85h-1.08l-1.73,1.01v8.35l15.27,4.25v2.09l-1.22.94v12.24l1.08,1.08v2.3l-9.94,3.67h-5.83l-9.94-3.67v-2.3l1.08-1.08v-10.23h5.69l3.82,2.74v9.15l1.73,1.01h1.08l1.73-1.01v-12.31l-15.27-4.25v-2.09l1.22-.94v-8.28l-1.08-1.15v-2.23l9.94-3.67h5.83l9.94,3.67v2.23l-1.08,1.15v6.55h-5.69l-3.82-2.74v-5.47l-1.73-1.01Z"/>
    <path class="cls-2" d="m270.15,31.71l1.29-3.67h3.67v-5.33l4.83-3.46h4.68v8.78h4.54l.43,2.09-1.3,3.67h-3.67v29.23l2.16,1.87v2.3h-13.83v-2.3l2.16-1.87v-29.23h-4.54l-.43-2.09Z"/>
  </g>
  <g>
    <path class="cls-2" d="m83.65,92.9v-9.12l-1.74-1.2v-2.1l9.72-3.6h5.04l9.72,3.6v2.1l-1.74,1.2v6.06l-12.36,17.4v8.16h2.94l.78-.6v-6.12l3.54-4.98h5.1v15.78h-23.34v-2.1l2.34-1.8v-10.02l12.36-17.4v-6l-1.38-.6h-.96l-1.38.6v5.82l-3.54,4.92h-5.1Z"/>
    <path class="cls-2" d="m144.97,83.78l-1.74-1.2v-2.1l9.72-3.6h5.04l9.72,3.6v2.1l-1.74,1.2v29.4l1.74,1.2v2.1l-9.72,3.6h-5.04l-9.72-3.6v-2.1l1.74-1.2v-29.4Zm8.64,31.02l1.38.6h.96l1.38-.6v-32.64l-1.38-.6h-.96l-1.38.6v32.64Z"/>
    <path class="cls-2" d="m206.89,92.9v-9.12l-1.74-1.2v-2.1l9.72-3.6h5.04l9.72,3.6v2.1l-1.74,1.2v6.06l-12.36,17.4v8.16h2.94l.78-.6v-6.12l3.54-4.98h5.1v15.78h-23.34v-2.1l2.34-1.8v-10.02l12.36-17.4v-6l-1.38-.6h-.96l-1.38.6v5.82l-3.54,4.92h-5.1Z"/>
    <path class="cls-2" d="m277.27,100.94h3.3v-19.62l5.16-3.84h3.48v24.18l2.4,2.88-.24,1.74h-2.16v9.3l2.34,1.8v2.1h-13.38v-2.1l2.4-1.8v-9.3h-10.8l-2.76-3.3v-2.04l1.2-1.14v-18.42l-2.34-1.8v-2.1h10.98v23.04l.42.42Z"/>
  </g>
  <line class="cls-1" x1="81" y1="72.5" x2="290" y2="72.5"/>
  <polygon class="cls-2" points="0 68.48 63.33 0 74 34.24 74 119.33 63.33 43 51.33 37 46.33 47 40.33 41 32.33 53 28.33 47 22.67 57.5 0 68.48"/>
  <polygon class="cls-2" points="372 68.48 308.67 0 298 34.24 298 119.33 308.67 43 320.67 37 325.67 47 331.67 41 339.67 53 343.67 47 349.33 57.5 372 68.48"/>
</svg>