<?xml version="1.0" encoding="UTF-8"?>
<svg id="Layer_1" data-name="Layer 1" xmlns="http://www.w3.org/2000/svg" viewBox="0 0 233 132.78">
  <defs>
    <style>
      .cls-1 {
        fill: #733c53;
      }
    </style>
  </defs>
  <g>
    <path class="cls-1" d="m80.3,44.11l2.88-3.46v-18.29l-2.09-1.44v-2.52l9.72-3.6h17.57v19.95h-6.91l-3.46-2.88v-12.17h-2.81l-1.66.72v19.37h12.38l.29,2.09-3.6,4.32h-9.07v14.33l2.88,2.16v2.52h-16.06v-2.52l2.81-2.16v-14.33h-2.59l-.29-2.09Z"/>
    <path class="cls-1" d="m125.08,44.11l2.88-3.46v-18.29l-2.09-1.44v-2.52l9.72-3.6h17.57v19.95h-6.91l-3.46-2.88v-12.17h-2.81l-1.66.72v19.37h12.39l.29,2.09-3.6,4.32h-9.07v14.33l2.88,2.16v2.52h-16.06v-2.52l2.81-2.16v-14.33h-2.59l-.29-2.09Z"/>
  </g>
  <g>
    <path class="cls-1" d="m82.65,90.9v-9.12l-1.74-1.2v-2.1l9.72-3.6h5.04l9.72,3.6v2.1l-1.74,1.2v6.06l-12.36,17.4v8.16h2.94l.78-.6v-6.12l3.54-4.98h5.1v15.78h-23.34v-2.1l2.34-1.8v-10.02l12.36-17.4v-6l-1.38-.6h-.96l-1.38.6v5.82l-3.54,4.92h-5.1Z"/>
    <path class="cls-1" d="m130.23,98.94h3.3v-19.62l5.16-3.84h3.48v24.18l2.4,2.88-.24,1.74h-2.16v9.3l2.34,1.8v2.1h-13.38v-2.1l2.4-1.8v-9.3h-10.8l-2.76-3.3v-2.04l1.2-1.14v-18.42l-2.34-1.8v-2.1h10.98v23.04l.42.42Z"/>
  </g>
  <polygon class="cls-1" points="233 68.48 169.67 0 159 34.24 159 119.33 169.67 43 181.67 37 186.67 47 192.67 41 200.67 53 204.67 47 210.33 57.5 233 68.48"/>
  <polygon class="cls-1" points="0 68.48 63.33 0 74 34.24 74 119.33 63.33 43 51.33 37 46.33 47 40.33 41 32.33 53 28.33 47 22.67 57.5 0 68.48"/>
</svg>